<svg width="64" height="64" xmlns="http://www.w3.org/2000/svg">

 <g>
  <title>background</title>
  <rect fill="none" id="canvas_background" height="66" width="66" y="-1" x="-1"/>
 </g>
 <g>
  <title>Layer 1</title>
  <path id="svg_2" fill="#A67C52" d="m28,0c-11.09,0 -16,6 -16,16l0,28l32,0l0,-28c0,-10 -6.543,-16 -16,-16z"/>
  <polygon id="svg_4" fill="#DBB59A" points="32,30.001 24,30.001 22,38.001 22,64 34,64 34,38.001   "/>
  <path id="svg_6" fill="#48A0DC" d="m52,48c-1.881,-1.88 -16,-8 -16,-8l-8,24l28,0c0,0 -0.24,-12.24 -4,-16zm-48,0c-3.761,3.76 -4,16 -4,16l28,0l-8,-24c0,0 -14.12,6.12 -16,8z"/>
  <path id="svg_8" fill="#FFFFFF" d="m34,38.001l-6,25.999l2,0l6,-14l10,-2l-12,-9.999zm-24,9.999l10,2l6,14l2,0l-6,-25.999l-12,9.999z"/>
  <path id="svg_10" fill-rule="evenodd" clip-rule="evenodd" fill="#F6CBAD" d="m33.503,11.965c-1.565,3.463 -6.965,6.035 -13.503,6.035c0.009,0 -1.977,0 -3.971,0c0.088,3.917 0.451,6.961 1.971,10c2,4 6.081,8 10,8c3.918,0 8,-4 10,-8c1.772,-3.544 1.974,-7.095 1.996,-12.031c-0.039,-2.28 -4.341,-4.004 -6.493,-4.004z"/>
  <path id="svg_12" fill-rule="evenodd" clip-rule="evenodd" fill="#4D4D4D" d="m45.589,13.041c-1.748,-6.31 -8.954,-11.04 -17.589,-11.04s-15.841,4.73 -17.589,11.04c-1.336,0.732 -2.411,1.785 -2.411,2.96l0,4c0,2.209 3.791,4 6,4l0,-8c0,-5.523 6.268,-10 14,-10c7.731,0 14,4.477 14,10l0,4c0,4.287 -2.703,7.934 -6.494,9.355c-0.537,-0.815 -1.457,-1.355 -2.506,-1.355l-4,0c-1.657,0 -3,1.343 -3,3c0,1.656 1.343,3 3,3l4,0c0.295,0 0.574,-0.056 0.843,-0.135c5.897,-0.778 10.64,-5.214 11.853,-10.963c1.285,-0.73 2.304,-1.758 2.304,-2.902l0,-4c0,-1.175 -1.075,-2.228 -2.411,-2.96z"/>
 </g>
</svg>